<svg width="12" height="12" viewBox="0 0 12 12" fill="none" xmlns="http://www.w3.org/2000/svg">
<path fill-rule="evenodd" clip-rule="evenodd" d="M5.95211 4.27091L2.01468 0.348198C1.54895 -0.117531 0.807942 -0.117531 0.342215 0.348198C-0.123512 0.813927 -0.123512 1.56967 0.342215 2.0354L4.25856 5.95812L0.342215 9.88083C-0.123512 10.3466 -0.123512 11.1023 0.342215 11.568C0.807942 12.0316 1.54895 12.0316 2.01468 11.568L5.95211 7.64532L9.86845 11.568C10.3342 12.0316 11.0963 12.0316 11.562 11.568C12.0277 11.1023 12.0277 10.3466 11.562 9.88083L7.62458 5.95812L11.562 2.0354C12.0277 1.56967 12.0277 0.813927 11.562 0.348198C11.0963 -0.117531 10.3342 -0.117531 9.86845 0.348198L5.95211 4.27091Z" fill="white" fill-opacity="0.9"/>
</svg>
